<?xml version="1.0" encoding="UTF-8"?>
<svg id="Laag_1" xmlns="http://www.w3.org/2000/svg" version="1.1" viewBox="0 0 1920 1080">
  <!-- Generator: Adobe Illustrator 29.8.1, SVG Export Plug-In . SVG Version: 2.1.1 Build 2)  -->
  <defs>
    <style>
      .st0 {
        fill: none;
        stroke: #000;
        stroke-miterlimit: 10;
      }

      .st1 {
        fill: #ffc100;
      }
    </style>
  </defs>
  <path class="st1" d="M909.47,406.29c21.63-68.96,43.26-137.92,64.89-206.87,61.32-2.15,122.65-4.3,183.97-6.45,64.99,252.42,129.99,504.84,194.98,757.26-37.32,3.86-74.64,7.72-111.95,11.58-35.57-138.98-71.14-277.95-106.7-416.93-244.17-7.31-488.33-14.61-732.5-21.92l111.61-125.56c2.65.06,5.3.12,7.95.18,197.31,4.43,394.63,8.86,591.94,13.29-6.36-44.73-12.73-89.46-19.09-134.19h-55.98c-8.63,43.98-17.26,87.95-25.9,131.93"/>
  <path class="st1" d="M991.37,540.41c-35.62,140.47-71.24,280.94-106.86,421.4-38.9-4.94-77.81-9.89-116.71-14.83,37.26-136.62,74.52-273.23,111.79-409.85"/>
  <path class="st0" d="M1010.84,408.6c8.63-43.98,17.26-87.95,25.9-131.93h55.98c6.36,44.73,12.73,89.46,19.09,134.19-199.97-4.49-399.93-8.98-599.9-13.47"/>
  <path class="st0" d="M400.3,522.96c244.17,7.31,488.33,14.61,732.5,21.92,35.57,138.98,71.14,277.95,106.7,416.93,37.32-3.86,74.64-7.72,111.95-11.58-64.99-252.42-129.99-504.84-194.98-757.26-61.32,2.15-122.65,4.3-183.97,6.45-21.63,68.96-43.26,137.92-64.89,206.87"/>
  <path class="st0" d="M989.52,540.41c-35.62,140.47-71.24,280.94-106.86,421.4-38.9-4.94-77.81-9.89-116.71-14.83,37.26-136.62,74.52-273.23,111.79-409.85"/>
</svg>