<?xml version="1.0" encoding="UTF-8"?>
<svg id="Laag_1" xmlns="http://www.w3.org/2000/svg" version="1.1" viewBox="0 0 1920 1080">
  <!-- Generator: Adobe Illustrator 29.8.1, SVG Export Plug-In . SVG Version: 2.1.1 Build 2)  -->
  <defs>
    <style>
      .st0 {
        fill: none;
      }

      .st0, .st1 {
        stroke: #000;
        stroke-miterlimit: 10;
      }

      .st1 {
        fill: #ffc100;
      }
    </style>
  </defs>
  <rect class="st1" x="661.91" y="211.85" width="43.66" height="45.95"/>
  <rect class="st1" x="1266.71" y="295.31" width="190.79" height="77.77"/>
  <polygon class="st1" points="599.12 254.24 599.12 401.81 1266.44 401.81 1443.66 252.78 599.12 254.24"/>
  <path class="st1" d="M573.62,856.03c50.61,4.04,101.23,8.09,151.84,12.13,13.83-95.97,27.66-191.94,41.48-287.9,103.9,1.24,207.8,2.48,311.7,3.71l145.92-138.79h-596.11l-54.85,410.86Z"/>
  <rect class="st1" x="763.06" y="252.78" width="436.45" height="79.14"/>
  <line class="st0" x1="624.71" y1="860.11" x2="699.1" y2="445.17"/>
  <polygon class="st1" points="842.74 602.33 855 603.13 850.32 653.61 787.54 649.21 788.99 638.42 839.28 641.61 842.74 602.33"/>
</svg>