<?xml version="1.0" encoding="UTF-8"?>
<svg id="Laag_1" xmlns="http://www.w3.org/2000/svg" version="1.1" viewBox="0 0 1920 1080">
  <!-- Generator: Adobe Illustrator 29.8.1, SVG Export Plug-In . SVG Version: 2.1.1 Build 2)  -->
  <defs>
    <style>
      .st0 {
        fill: none;
      }

      .st0, .st1 {
        stroke: #000;
        stroke-miterlimit: 10;
      }

      .st1, .st2 {
        fill: #ffc100;
      }
    </style>
  </defs>
  <g>
    <rect class="st1" x="277.5" y="143.93" width="48.5" height="51.05"/>
    <rect class="st1" x="949.41" y="236.65" width="211.96" height="86.4"/>
    <polygon class="st1" points="207.75 191.03 207.75 354.97 949.11 354.97 1146 189.41 207.75 191.03"/>
    <path class="st1" d="M179.41,859.59c56.23,4.49,112.46,8.98,168.69,13.47,15.36-106.62,30.73-213.23,46.09-319.85,115.43,1.37,230.86,2.75,346.29,4.12l162.12-154.19H240.35l-60.94,456.44Z"/>
    <rect class="st1" x="389.87" y="189.41" width="484.88" height="87.92"/>
    <line class="st0" x1="236.18" y1="864.12" x2="318.82" y2="403.14"/>
    <polygon class="st1" points="478.4 577.75 492.02 578.63 486.82 634.71 417.08 629.83 418.69 617.83 474.56 621.39 478.4 577.75"/>
  </g>
  <g>
    <path class="st2" d="M1300.45,457.3c18.83-60.02,37.65-120.04,56.48-180.06,53.37-1.87,106.75-3.74,160.12-5.61,56.57,219.7,113.14,439.41,169.71,659.11-32.48,3.36-64.96,6.72-97.44,10.08-30.96-120.96-61.92-241.92-92.87-362.89-212.52-6.36-425.04-12.72-637.56-19.08l97.15-109.28c2.31.05,4.62.1,6.92.16,171.74,3.86,343.48,7.71,515.22,11.56-5.54-38.93-11.08-77.87-16.62-116.8h-48.73c-7.51,38.28-15.03,76.55-22.54,114.83"/>
    <path class="st2" d="M1373.35,574.04c-31,122.26-62.01,244.52-93.01,366.78-33.86-4.3-67.72-8.61-101.58-12.91,32.43-118.91,64.86-237.82,97.3-356.73"/>
    <path class="st0" d="M1391.54,461.21c7.51-38.28,15.03-76.55,22.54-114.83h48.73c5.54,38.93,11.08,77.87,16.62,116.8-174.05-3.91-348.09-7.81-522.14-11.72"/>
    <path class="st0" d="M858.89,558.85c212.52,6.36,425.04,12.72,637.56,19.08,30.96,120.96,61.92,241.92,92.87,362.89,32.48-3.36,64.96-6.72,97.44-10.08-56.57-219.7-113.14-439.41-169.71-659.11-53.37,1.87-106.75,3.74-160.12,5.61-18.83,60.02-37.65,120.04-56.48,180.06"/>
    <path class="st0" d="M1371.74,574.04c-31,122.26-62.01,244.52-93.01,366.78-33.86-4.3-67.72-8.61-101.58-12.91,32.43-118.91,64.86-237.82,97.3-356.73"/>
  </g>
</svg>